<?xml version="1.0" encoding="UTF-8" standalone="no"?>
<!DOCTYPE svg PUBLIC "-//W3C//DTD SVG 1.1//EN" "http://www.w3.org/Graphics/SVG/1.1/DTD/svg11.dtd">
<svg width="100%" height="100%" viewBox="0 0 969 576" version="1.1" xmlns="http://www.w3.org/2000/svg" xmlns:xlink="http://www.w3.org/1999/xlink" xml:space="preserve" xmlns:serif="http://www.serif.com/" style="fill-rule:evenodd;clip-rule:evenodd;stroke-linejoin:round;stroke-miterlimit:2;">
    <g transform="matrix(1,0,0,1,-31.791,-230.851)">
        <g transform="matrix(1.61103,0,0,1.61103,676.024,522.708)">
            <path d="M0,0C12.711,0.01 25.398,0.247 38.097,0.828C39.742,0.902 41.389,0.971 43.035,1.033C58.336,1.633 73.358,4.199 84.342,15.94C94.948,29.049 95.744,44.01 94.529,60.19C92.866,71.77 86.94,81.9 78.052,89.362C73.798,92.445 69.233,94.869 64.529,97.19C64.859,102.61 68.043,105.502 71.529,109.315C72.726,110.658 73.921,112.002 75.115,113.347L76.891,115.335C79.046,117.776 81.107,120.284 83.154,122.815C86.36,126.771 89.611,130.682 92.904,134.565L94.299,136.21L98.529,141.19C105.275,149.128 111.976,157.093 118.529,165.19L120.763,167.831C122.807,170.562 122.992,171.858 122.529,175.19L121.529,176.19C111.792,176.055 102.106,174.545 92.496,173.089C90.268,172.751 88.039,172.422 85.81,172.095C82.971,171.675 80.135,171.24 77.301,170.789C75.003,170.424 72.703,170.077 70.398,169.76L67.732,169.343L65.518,169.026C60.86,167.069 58.646,161.839 56.392,157.577L54.656,154.318L52.842,150.878C51.589,148.522 50.332,146.169 49.076,143.815L47.234,140.362C44.731,135.705 42.149,131.095 39.52,126.507C37.8,123.497 36.149,120.474 34.603,117.37L33.667,115.522C32.842,113.878 32.036,112.224 31.232,110.569C29.742,107.944 29.742,107.944 26.923,107.542L24.529,107.19L24.536,109.348C24.556,116.043 24.571,122.739 24.581,129.434C24.586,132.877 24.593,136.319 24.604,139.762C24.617,143.716 24.622,147.67 24.627,151.624L24.642,155.387L24.643,158.844L24.649,161.906C24.529,164.19 24.529,164.19 23.529,165.19C16.259,165.602 8.922,165.184 1.654,164.815L-0.469,164.722C-11.575,164.087 -11.575,164.087 -14.471,161.19C-14.745,157.303 -14.658,153.394 -14.655,149.499L-14.651,145.64C-14.568,126.847 -13.547,108.072 -12.675,89.303C-12.302,81.266 -11.937,73.228 -11.576,65.19L-11.31,59.285C-10.606,43.659 -10.108,28.034 -9.809,12.394L-9.761,10.107C-9.718,8.086 -9.68,6.066 -9.644,4.045C-9.296,-1.698 -4.785,0.032 0,0ZM30.183,31.868C24.998,31.907 20.809,30.896 20.27,37.231L20.263,41.097C20.259,42.494 20.257,43.891 20.256,45.288C20.268,47.494 20.279,49.699 20.268,51.905C20.26,53.344 20.256,54.783 20.258,56.222L20.263,58.284C20.27,62.149 20.27,62.149 20.529,65.19C22.81,67.471 22.81,67.471 31.703,67.562L35.342,67.565L38.945,67.64L42.424,67.651C47.541,67.691 49.824,66.752 53.529,63.19C56.074,59.262 56.947,55.957 57.037,51.269L57.029,49.19C57.214,44.72 56.901,41.779 54.435,37.878C48.645,32.523 43.838,31.824 36.191,31.829L33.217,31.878L30.183,31.868Z" style="fill:rgb(126,202,174);"/>
        </g>
        <g transform="matrix(1.61103,0,0,1.61103,420.614,242.07)">
            <path d="M0,0L3.704,-0.029L7.719,-0.01L11.857,-0.019C14.755,-0.023 17.653,-0.017 20.55,-0.003C24.232,0.014 27.913,0.004 31.594,-0.014C34.449,-0.025 37.303,-0.021 40.157,-0.013C42.165,-0.01 44.172,-0.019 46.179,-0.029C60.366,0.079 72.147,2.93 82.879,12.576C92.353,22.632 92.61,35.666 92.399,48.642C91.932,60.254 88.849,70.052 80.403,78.4C75.359,82.693 70.5,85.619 64.067,87.388C65.434,93.12 68.252,96.189 72.254,100.263C73.444,101.507 74.633,102.752 75.821,103.998L77.54,105.785C79.314,107.648 81.015,109.562 82.692,111.513C86.893,116.377 91.265,121.084 95.618,125.811C97.052,127.372 98.478,128.94 99.903,130.509C104.894,136.002 109.962,141.375 115.289,146.548C117.63,148.971 119.01,150.593 119.254,154.013C119.067,156.388 119.067,156.388 118.067,157.388C116.529,157.507 114.985,157.558 113.443,157.581L110.458,157.63C105.94,157.674 101.422,157.715 96.904,157.738C94.519,157.755 92.135,157.782 89.751,157.82C86.32,157.875 82.889,157.897 79.457,157.912L76.231,157.98C68.831,157.959 68.831,157.959 65.021,155.113C61.696,150.477 61.696,150.477 60.41,148.263L59.02,145.903L57.567,143.388C56.513,141.6 55.459,139.812 54.403,138.025L52.753,135.226C49.954,130.517 47.077,125.857 44.192,121.201L42.608,118.632C41.107,116.209 39.587,113.799 38.067,111.388L36.491,108.812L34.934,106.337L33.554,104.11C31.796,102.075 30.716,101.656 28.067,101.388C26.787,102.436 26.787,102.436 27.029,104.793L27.153,107.962L27.285,111.425L27.442,115.076L27.574,118.667C27.806,125.075 27.806,125.075 28.578,131.431C29.385,136.317 29.251,141.197 29.254,146.138L29.291,149.33L29.297,152.373L29.31,155.145C29.067,157.388 29.067,157.388 27.067,159.388C18.598,160.653 9.802,160.5 1.254,160.576L-1.406,160.615L-3.89,160.619L-6.108,160.631C-7.933,160.388 -7.933,160.388 -9.933,158.388C-10.181,155.347 -10.181,155.347 -10.176,151.362L-10.182,149.151C-10.186,146.702 -10.175,144.254 -10.164,141.806L-10.164,136.591C-10.163,131.894 -10.149,127.198 -10.131,122.501C-10.121,119.586 -10.114,116.67 -10.108,113.754C-10.08,100.916 -10.024,88.078 -9.95,75.24L-9.904,66.901C-9.85,57.004 -9.776,47.107 -9.668,37.211C-9.635,34.207 -9.609,31.203 -9.588,28.2C-9.558,24.05 -9.503,19.901 -9.445,15.751L-9.426,12.052L-9.366,8.698L-9.332,5.79C-8.933,3.388 -8.933,3.388 -7.777,1.581C-5.138,-0.126 -3.131,0.007 0,0ZM35.379,30.013C29.737,30.019 21.477,27.88 20.808,35.23L20.801,38.822L20.793,42.726C20.806,44.778 20.817,46.829 20.806,48.882L20.793,50.914L20.801,54.822C20.809,59.104 20.665,60.785 23.067,64.388L25.034,64.76L27.426,64.751L30.059,64.75L32.817,64.701C40.16,64.727 46.117,64.958 51.918,59.904C54.576,56.401 54.612,53.139 54.555,48.849L54.442,46.138C54.357,40.727 54.916,36.585 51.297,32.287C47.252,29.909 47.252,29.909 38.838,29.939L35.379,30.013Z" style="fill:rgb(126,202,174);"/>
        </g>
        <g transform="matrix(1.61103,0,0,1.61103,47.7296,234.464)">
            <path d="M0,0C1.312,0.05 2.625,0.101 3.977,0.152C5.367,0.221 6.758,0.29 8.148,0.359C9.484,0.414 10.82,0.468 12.156,0.52C18.366,0.772 24.568,1.106 30.771,1.494C41.399,2.156 52.023,2.429 62.668,2.662C65.032,2.714 67.395,2.771 69.758,2.828C70.447,2.842 71.136,2.855 71.845,2.869C76.162,2.975 80.441,3.253 84.744,3.612C91.419,4.145 98.061,4.294 104.754,4.355C107.209,4.388 109.664,4.422 112.119,4.455C115.942,4.503 119.765,4.547 123.588,4.586C127.31,4.626 131.032,4.677 134.754,4.73C136.482,4.743 136.482,4.743 138.245,4.756C139.304,4.773 140.363,4.789 141.454,4.806C142.387,4.817 143.321,4.827 144.282,4.838C146.523,5.109 146.523,5.109 148.523,7.109C149.009,11.215 148.894,15.354 148.898,19.484C148.923,20.634 148.947,21.784 148.973,22.969C148.977,24.075 148.98,25.181 148.984,26.32C148.993,27.334 149.001,28.348 149.009,29.392C148.387,32.873 147.312,33.986 144.523,36.109C142.286,36.987 142.286,36.987 139.781,37.531C138.815,37.748 137.849,37.965 136.854,38.188C135.796,38.41 134.738,38.631 133.648,38.859C132.541,39.104 131.434,39.349 130.293,39.601C123.892,41.002 117.477,42.33 111.062,43.662C109.327,44.022 107.593,44.383 105.858,44.745C101.569,45.638 97.278,46.524 92.983,47.394C91.394,47.721 89.804,48.048 88.215,48.375C87.482,48.521 86.748,48.666 85.993,48.816C82.619,49.518 80.431,50.171 77.523,52.109C76.812,59.578 78.151,66.716 79.383,74.064C80.118,78.454 80.748,82.792 81.086,87.234C81.386,91.148 82.053,94.796 82.973,98.607C83.538,101.174 83.95,103.724 84.332,106.324C85.16,111.812 86.039,117.29 86.941,122.766C87.663,127.144 88.378,131.524 89.092,135.903C89.464,138.171 89.838,140.439 90.215,142.707C90.766,146.021 91.306,149.336 91.844,152.652C92.012,153.654 92.181,154.655 92.355,155.687C94.463,168.827 94.463,168.827 93.523,174.109C85.637,179.367 73.515,179.138 64.248,180.342C61.726,180.67 59.206,181.005 56.686,181.342C36.554,184 36.554,184 29.523,184.109C28.523,183.109 28.523,183.109 28.504,179.332C28.834,169.524 29.724,159.937 31.316,150.254C32.86,140.546 34.284,130.829 35.594,121.086C35.848,119.197 35.848,119.197 36.107,117.269C36.623,113.424 37.136,109.579 37.648,105.734C38.17,101.824 38.693,97.914 39.218,94.004C39.54,91.602 39.861,89.2 40.18,86.798C41.031,80.454 41.997,74.153 43.149,67.858C43.55,64.911 43.586,62.08 43.523,59.109C35.316,58.698 27.837,60.253 19.836,61.984C18.531,62.257 17.225,62.529 15.92,62.801C9.046,64.233 9.046,64.233 2.309,66.184C-0.842,67.231 -3.178,67.476 -6.477,67.109C-8.128,65.958 -8.128,65.958 -9.477,64.109C-9.858,61.453 -9.858,61.453 -9.865,58.217C-9.874,57.005 -9.884,55.794 -9.893,54.546C-9.887,53.237 -9.881,51.927 -9.875,50.578C-9.877,49.222 -9.88,47.866 -9.884,46.51C-9.888,43.668 -9.882,40.827 -9.868,37.986C-9.851,34.344 -9.86,30.703 -9.878,27.061C-9.889,24.26 -9.886,21.46 -9.878,18.66C-9.875,16.664 -9.884,14.669 -9.893,12.673C-9.884,11.461 -9.874,10.25 -9.865,9.002C-9.862,7.934 -9.86,6.866 -9.858,5.766C-9.477,3.109 -9.477,3.109 -8.135,1.258C-5.489,-0.575 -3.164,-0.138 0,0Z" style="fill:rgb(126,202,174);fill-rule:nonzero;"/>
        </g>
        <g transform="matrix(1.61103,0,0,1.61103,841.599,231.119)">
            <path d="M0,0C2.343,-0.002 4.686,-0.021 7.029,-0.039C8.522,-0.042 10.015,-0.044 11.508,-0.045C12.206,-0.052 12.905,-0.06 13.625,-0.067C18.525,-0.044 18.525,-0.044 20.754,2.185C20.564,6.552 19.436,10.312 18.035,14.439C17.495,16.038 17.495,16.038 16.945,17.67C16.552,18.83 16.159,19.99 15.754,21.185C14.912,23.697 14.07,26.208 13.23,28.72C13.005,29.393 12.78,30.065 12.548,30.758C7.05,47.191 1.621,63.646 -3.746,80.123C-4.043,81.033 -4.34,81.943 -4.646,82.881C-7.643,92.076 -10.608,101.276 -13.428,110.527C-14.477,113.935 -15.6,117.309 -16.746,120.685C-19.253,128.129 -21.562,135.628 -23.84,143.144C-29.593,162.076 -29.593,162.076 -32.246,167.185C-35.656,168.89 -39.354,167.936 -43.083,167.651C-47.412,167.338 -51.718,167.138 -56.059,167.068C-57.043,167.045 -58.027,167.023 -59.04,166.999C-60.987,166.957 -62.935,166.934 -64.882,166.93C-65.781,166.906 -66.68,166.882 -67.606,166.857C-68.405,166.848 -69.204,166.838 -70.027,166.829C-73.411,165.848 -74.395,164.137 -76.246,161.185C-77.12,158.564 -77.823,156.099 -78.43,153.42C-78.703,152.292 -78.703,152.292 -78.982,151.142C-79.562,148.742 -80.124,146.339 -80.684,143.935C-81.426,140.804 -82.176,137.674 -82.93,134.545C-83.117,133.764 -83.304,132.983 -83.497,132.179C-84.952,126.192 -86.641,120.297 -88.417,114.399C-90.412,107.736 -92.11,101.014 -93.756,94.257C-94.606,90.773 -95.468,87.291 -96.332,83.81C-96.5,83.136 -96.667,82.461 -96.84,81.766C-98.095,76.733 -99.441,71.733 -100.871,66.748C-103.175,58.711 -105.096,50.594 -107.003,42.455C-108.53,35.99 -110.242,29.617 -112.121,23.248C-113.925,17.06 -114.861,11.639 -114.246,5.185C-113.246,4.185 -113.246,4.185 -109.277,4.072C-107.505,4.072 -105.733,4.078 -103.961,4.088C-103.03,4.089 -102.1,4.09 -101.141,4.092C-98.155,4.098 -95.169,4.11 -92.184,4.123C-90.165,4.128 -88.146,4.132 -86.127,4.136C-81.167,4.148 -76.207,4.165 -71.246,4.185C-69.33,9.628 -67.748,14.957 -66.668,20.638C-66.536,21.325 -66.404,22.011 -66.268,22.719C-65.838,24.957 -65.417,27.196 -64.996,29.435C-64.695,31.01 -64.394,32.585 -64.091,34.16C-62.636,41.765 -61.209,49.374 -59.788,56.985C-59.311,59.536 -58.833,62.087 -58.355,64.637C-57.749,67.866 -57.151,71.096 -56.556,74.327C-56.28,75.808 -56.003,77.29 -55.727,78.771C-55.489,80.061 -55.25,81.35 -55.005,82.679C-54.289,85.988 -53.562,89.063 -52.246,92.185C-51.256,92.515 -50.266,92.845 -49.246,93.185C-49.039,92.09 -48.831,90.994 -48.617,89.865C-46.366,78.199 -43.765,66.633 -41.036,55.069C-38.471,44.191 -35.997,33.294 -33.556,22.387C-33.022,20.009 -32.485,17.632 -31.943,15.257C-31.519,13.386 -31.105,11.514 -30.71,9.637C-29.887,5.918 -29.293,3.544 -26.246,1.185C-17.981,-0.82 -8.487,-0.001 0,0Z" style="fill:rgb(126,202,174);fill-rule:nonzero;"/>
        </g>
        <g transform="matrix(1.61103,0,0,1.61103,461.656,524.443)">
            <path d="M0,0L3.158,0.016L6.566,0.026L10.154,0.051L13.754,0.065C16.7,0.077 19.646,0.093 22.592,0.114C25.845,8.611 28.472,17.246 30.967,25.989L32.06,29.785C33.676,35.398 35.283,41.013 36.864,46.635C41.761,64.003 47.063,81.248 52.327,98.507C53.867,103.556 55.404,108.606 56.939,113.656L57.575,115.746C60.217,124.447 62.808,133.157 65.144,141.946C66.083,145.45 67.239,148.751 68.592,152.114C68.842,154.801 68.842,154.801 68.592,157.114C66.215,159.49 65.713,159.371 62.481,159.404L59.912,159.443L57.131,159.449L54.276,159.47C52.28,159.48 50.284,159.484 48.289,159.484C45.236,159.488 42.184,159.525 39.131,159.563C37.193,159.569 35.256,159.573 33.318,159.574L30.549,159.618C24.314,159.573 24.314,159.573 21.058,157.501C19.178,154.44 18.801,152.018 18.396,148.449L17.916,144.551C17.765,143.197 17.615,141.843 17.467,140.489C17.162,137.828 16.844,135.17 16.521,132.512L16.122,128.939C15.843,125.989 15.843,125.989 13.592,124.114C9.069,123.644 4.532,123.657 -0.011,123.633C-2.269,123.614 -4.523,123.552 -6.78,123.489C-8.216,123.475 -9.652,123.465 -11.088,123.457L-15.049,123.401C-18.604,123.805 -18.604,123.805 -20.727,126.755C-22.345,129.987 -23.571,133.047 -24.627,136.5L-25.764,140.092C-26.53,142.575 -27.293,145.06 -28.053,147.545L-29.19,151.125L-30.192,154.39C-31.546,157.422 -32.511,158.54 -35.408,160.114C-37.48,160.53 -37.48,160.53 -39.674,160.59L-42.123,160.684L-44.658,160.739C-46.31,160.79 -47.961,160.845 -49.612,160.903L-52.062,160.986C-54.242,161.104 -56.364,161.33 -58.526,161.625C-62.479,162.122 -66.301,162.281 -70.283,162.301L-74.213,162.344C-77.408,162.114 -77.408,162.114 -79.408,160.114C-79.147,154.731 -76.848,150.473 -74.436,145.778L-73.22,143.362C-71.936,140.817 -70.641,138.278 -69.346,135.739L-66.817,130.735C-65.146,127.427 -63.471,124.122 -61.794,120.818C-55.238,107.897 -48.832,94.906 -42.48,81.884C-41.148,79.154 -39.813,76.426 -38.479,73.698L-35.893,68.399L-34.706,65.974C-32.503,61.451 -30.408,56.894 -28.381,52.289C-26.843,48.847 -25.198,45.459 -23.545,42.071L-22.469,39.856L-20.228,35.25C-19.107,32.949 -17.989,30.648 -16.871,28.346C-13.417,21.239 -9.945,14.14 -6.428,7.063L-4.732,3.647C-2.898,0.137 -2.898,0.137 0,0ZM2.592,55.114C1.592,57.114 1.592,57.114 0.83,59.371C-0.44,63.303 -1.692,67.237 -3.166,71.098C-6.149,78.698 -9.263,85.823 -9.408,94.114C-8.408,95.114 -8.408,95.114 -6.475,95.243L-3.971,95.246L-1.26,95.25L1.592,95.239L4.443,95.25L7.154,95.246C9.353,95.243 11.002,95.703 12.592,94.114C12.67,84.752 12.67,84.752 7.592,56.114L2.592,55.114Z" style="fill:rgb(126,202,174);"/>
        </g>
        <g transform="matrix(1.61103,0,0,1.61103,329.963,243.9)">
            <path d="M0,0C0.771,0.007 1.542,0.014 2.336,0.022C3.127,0.022 3.919,0.023 4.734,0.023C6.409,0.026 8.083,0.034 9.758,0.046C12.326,0.065 14.893,0.067 17.461,0.067C19.086,0.072 20.711,0.077 22.336,0.084C23.492,0.086 23.492,0.086 24.672,0.088C30.104,0.136 30.104,0.136 32.336,1.252C32.429,21.523 32.5,41.794 32.543,62.065C32.564,71.477 32.592,80.888 32.638,90.3C32.678,98.502 32.703,106.704 32.712,114.907C32.718,119.251 32.73,123.595 32.759,127.939C32.786,132.026 32.794,136.114 32.788,140.201C32.789,141.702 32.797,143.204 32.813,144.705C32.833,146.753 32.825,148.801 32.817,150.849C32.821,151.996 32.824,153.142 32.828,154.324C32.229,157.89 31.15,159.057 28.336,161.252C26.344,161.798 26.344,161.798 24.246,161.862C23.467,161.894 22.689,161.926 21.886,161.96C21.065,161.974 20.244,161.988 19.398,162.002C18.557,162.03 17.715,162.059 16.848,162.088C14.344,162.165 11.841,162.213 9.336,162.252C8.629,162.267 7.922,162.283 7.194,162.298C-0.272,162.45 -0.272,162.45 -3.664,162.252C-5.442,160.475 -4.826,157.87 -4.854,155.463C-4.87,154.225 -4.887,152.987 -4.904,151.712C-4.911,151.046 -4.918,150.381 -4.924,149.695C-4.945,147.619 -4.972,145.544 -5.001,143.469C-5.071,138.314 -5.13,133.159 -5.19,128.003C-5.241,123.65 -5.296,119.297 -5.356,114.943C-5.383,112.893 -5.403,110.843 -5.424,108.793C-5.441,107.555 -5.457,106.317 -5.475,105.041C-5.487,103.945 -5.5,102.849 -5.513,101.72C-5.387,99.308 -5.387,99.308 -6.664,98.252C-10.219,97.999 -13.788,98.067 -17.352,98.065C-18.346,98.052 -19.341,98.04 -20.365,98.028C-21.334,98.026 -22.303,98.024 -23.301,98.022C-24.185,98.018 -25.069,98.014 -25.979,98.009C-29.098,98.291 -31.736,99.169 -34.664,100.252C-34.22,109.417 -33.594,118.541 -32.656,127.67C-32.566,128.551 -32.476,129.432 -32.383,130.34C-32.009,133.966 -31.63,137.592 -31.243,141.216C-30.957,143.909 -30.681,146.602 -30.406,149.295C-30.317,150.108 -30.227,150.92 -30.135,151.757C-29.699,156.093 -29.447,159.999 -30.664,164.252C-33.873,166.392 -35.182,166.593 -38.926,166.885C-39.963,166.969 -41,167.053 -42.068,167.139C-43.152,167.218 -44.235,167.296 -45.352,167.377C-46.416,167.464 -47.48,167.55 -48.576,167.639C-60.21,168.544 -60.21,168.544 -65.664,168.252C-68.722,165.194 -68.348,161.44 -68.701,157.308C-68.788,156.381 -68.874,155.454 -68.963,154.499C-69.248,151.423 -69.521,148.345 -69.793,145.268C-69.989,143.133 -70.185,140.998 -70.383,138.863C-70.901,133.23 -71.409,127.596 -71.915,121.963C-72.725,112.959 -73.552,103.956 -74.377,94.953C-74.664,91.808 -74.947,88.663 -75.23,85.517C-75.405,83.583 -75.581,81.649 -75.756,79.714C-75.834,78.841 -75.911,77.968 -75.991,77.069C-76.385,72.754 -76.921,68.524 -77.664,64.252C-77.727,62.462 -77.751,60.669 -77.727,58.877C-77.718,58.003 -77.709,57.129 -77.699,56.229C-77.688,55.577 -77.676,54.924 -77.664,54.252C-72.793,51.521 -68.196,50.287 -62.789,49.19C-61.25,48.867 -59.711,48.542 -58.172,48.217C-57.047,47.983 -57.047,47.983 -55.9,47.743C-53.698,47.26 -51.521,46.712 -49.34,46.143C-45.624,45.243 -42.471,45.019 -38.664,45.252C-37.153,46.763 -37.469,48.146 -37.383,50.252C-37.327,51.459 -37.327,51.459 -37.27,52.69C-37.199,54.398 -37.129,56.106 -37.059,57.815C-37.003,59.021 -37.003,59.021 -36.945,60.252C-36.915,60.995 -36.885,61.737 -36.854,62.502C-36.846,64.279 -36.846,64.279 -35.664,65.252C-28.828,65.738 -21.876,65.166 -15.039,64.815C-14.233,64.776 -13.427,64.736 -12.596,64.696C-8.818,64.827 -8.818,64.827 -5.664,63.252C-5.167,53.452 -5.948,43.646 -6.664,33.877C-8.373,9.208 -8.373,9.208 -7.664,2.252C-5.114,-0.297 -3.476,0.015 0,0Z" style="fill:rgb(126,202,174);fill-rule:nonzero;"/>
        </g>
        <g transform="matrix(1.61103,0,0,1.61103,425.555,526.237)">
            <path d="M0,0C1.339,4.301 0.273,6.325 -1.641,10.41C-2.065,11.323 -2.065,11.323 -2.498,12.255C-3.098,13.539 -3.703,14.821 -4.314,16.1C-5.246,18.053 -6.157,20.015 -7.066,21.979C-12.212,32.941 -12.212,32.941 -15,35C-23.669,37.321 -34.112,36.308 -43.063,36.5C-52.588,36.708 -62.106,36.948 -71.621,37.469C-72.35,37.506 -73.08,37.543 -73.831,37.582C-77.206,37.508 -77.206,37.508 -80,39C-80.087,40.416 -80.107,41.836 -80.098,43.254C-80.094,44.108 -80.091,44.962 -80.088,45.842C-80.08,46.74 -80.071,47.637 -80.063,48.563C-80.058,49.464 -80.053,50.366 -80.049,51.295C-80.037,53.53 -80.021,55.765 -80,58C-77,57.856 -74,57.71 -71,57.563C-70.09,57.518 -69.179,57.474 -68.241,57.428C-62.759,57.155 -57.287,56.822 -51.813,56.438C-43.536,55.896 -35.289,55.908 -27,56C-26.003,58.618 -25.925,59.78 -26.849,62.47C-27.296,63.375 -27.743,64.279 -28.203,65.211C-28.689,66.209 -29.175,67.206 -29.676,68.234C-30.195,69.271 -30.715,70.307 -31.25,71.375C-31.754,72.404 -32.258,73.432 -32.777,74.492C-33.749,76.472 -34.729,78.449 -35.717,80.421C-36.734,82.465 -37.71,84.53 -38.672,86.602C-40,89 -40,89 -43,91C-45.386,91.292 -47.787,91.475 -50.188,91.598C-50.886,91.637 -51.585,91.676 -52.305,91.716C-54.537,91.84 -56.768,91.952 -59,92.063C-61.232,92.178 -63.463,92.296 -65.695,92.419C-67.719,92.53 -69.744,92.633 -71.77,92.735C-75.013,92.872 -75.013,92.872 -78,94C-77.97,95.076 -77.939,96.151 -77.908,97.259C-77.59,108.672 -77.31,120.085 -77.057,131.499C-77.005,133.793 -76.947,136.087 -76.888,138.382C-76.8,142.005 -76.738,145.627 -76.688,149.25C-76.658,150.3 -76.628,151.35 -76.598,152.431C-76.586,153.865 -76.586,153.865 -76.574,155.328C-76.56,156.142 -76.545,156.956 -76.53,157.794C-77.203,160.952 -78.436,162.077 -81,164C-83.862,164.698 -83.862,164.698 -87.172,164.977C-88.994,165.145 -88.994,165.145 -90.853,165.317C-92.139,165.419 -93.425,165.52 -94.75,165.625C-97.384,165.862 -100.018,166.1 -102.652,166.34C-103.921,166.451 -105.189,166.561 -106.496,166.675C-111.934,167.179 -117.331,167.91 -122.738,168.668C-126.544,169.055 -130.175,169.119 -134,169C-134.33,168.67 -134.66,168.34 -135,168C-134.897,157 -132.933,145.873 -131.526,134.982C-131.129,131.903 -130.738,128.823 -130.348,125.742C-129.061,115.667 -127.67,105.623 -126.046,95.597C-124.891,88.438 -123.955,81.259 -123.063,74.063C-121.623,62.612 -120.051,51.188 -118.36,39.772C-117.601,34.566 -116.906,29.379 -116.445,24.137C-116.367,23.25 -116.288,22.364 -116.208,21.45C-116.074,19.832 -115.956,18.213 -115.859,16.593C-115.447,11.482 -115.447,11.482 -113.496,9.378C-109.944,7.417 -106.338,6.989 -102.371,6.48C-101.466,6.358 -100.56,6.236 -99.627,6.11C-86.659,4.459 -73.607,3.57 -60.572,2.637C-56.819,2.369 -53.067,2.086 -49.315,1.8C-32.859,0.552 -16.516,-0.371 0,0Z" style="fill:rgb(126,202,174);fill-rule:nonzero;"/>
        </g>
        <g transform="matrix(1.61103,0,0,1.61103,945.206,242.569)">
            <path d="M0,0C3.983,-0.068 7.965,-0.116 11.948,-0.15C13.526,-0.165 15.104,-0.183 16.682,-0.206C18.912,-0.236 21.142,-0.246 23.372,-0.25C24.664,-0.259 25.955,-0.269 27.286,-0.278C30.442,0.078 30.442,0.078 32.357,1.081C34.126,4.336 33.89,7.745 33.876,11.359C33.881,12.169 33.886,12.979 33.892,13.814C33.898,15.525 33.897,17.236 33.888,18.948C33.88,21.569 33.909,24.188 33.94,26.809C33.942,28.471 33.941,30.134 33.938,31.797C33.95,32.581 33.961,33.366 33.973,34.174C33.903,39.585 33.903,39.585 31.568,42.084C28.746,43.404 26.984,43.262 23.88,42.953C22.659,42.838 21.438,42.724 20.181,42.605C18.601,42.433 17.022,42.257 15.442,42.078C14.397,41.961 13.352,41.844 12.276,41.723C10.554,41.53 10.554,41.53 8.798,41.332C7.017,41.132 7.017,41.132 5.2,40.928C2.812,40.657 0.425,40.38 -1.962,40.095C-10.742,38.997 -10.742,38.997 -19.558,39.078C-24.074,45.852 -24.277,56.096 -23.558,64.078C-21.517,66.119 -17.282,65.287 -14.472,65.324C-12.802,65.357 -11.133,65.39 -9.464,65.424C-6.822,65.471 -4.179,65.516 -1.537,65.555C1.006,65.595 3.548,65.646 6.091,65.699C6.882,65.708 7.672,65.716 8.487,65.725C12.311,65.811 14.188,65.908 17.442,68.078C17.815,70.936 17.815,70.936 17.806,74.547C17.805,76.486 17.805,76.486 17.804,78.465C17.795,79.14 17.787,79.814 17.779,80.509C17.755,82.57 17.758,84.63 17.765,86.691C17.709,96.811 17.709,96.811 15.442,99.078C6.818,100.189 -1.798,98.529 -10.291,97.157C-19.394,95.663 -19.394,95.663 -28.558,96.078C-31.416,98.937 -31.806,102.315 -32.683,106.141C-32.951,107.29 -32.951,107.29 -33.225,108.463C-34.408,113.78 -34.955,118.619 -34.558,124.078C-31.829,125.442 -29.65,125.218 -26.595,125.236C-25.343,125.246 -24.092,125.256 -22.803,125.267C-21.797,125.272 -21.797,125.272 -20.771,125.277C-18.673,125.289 -16.576,125.309 -14.479,125.33C-8.516,125.392 -2.554,125.446 3.409,125.479C7.056,125.5 10.702,125.536 14.348,125.58C15.738,125.594 17.129,125.603 18.519,125.606C20.463,125.611 22.407,125.636 24.35,125.662C25.457,125.67 26.563,125.678 27.703,125.686C30.442,126.078 30.442,126.078 32.299,127.332C33.73,129.517 33.822,130.823 33.831,133.426C33.84,134.3 33.849,135.174 33.859,136.075C33.853,137.016 33.847,137.957 33.841,138.926C33.844,139.893 33.847,140.861 33.85,141.858C33.852,143.903 33.846,145.948 33.833,147.993C33.817,151.132 33.833,154.27 33.853,157.408C33.851,159.393 33.847,161.378 33.841,163.363C33.847,164.306 33.853,165.249 33.859,166.22C33.845,167.527 33.845,167.527 33.831,168.86C33.828,169.628 33.826,170.396 33.823,171.187C33.442,173.078 33.442,173.078 30.442,175.078C23.862,175.521 17.668,174.425 11.192,173.328C0.406,171.589 -10.386,170.204 -21.245,169.016C-22.001,168.933 -22.757,168.85 -23.536,168.765C-35.931,167.417 -48.336,166.186 -60.75,165.029C-64.02,164.723 -67.289,164.407 -70.558,164.078C-71.326,164.001 -72.095,163.924 -72.887,163.845C-77.312,163.323 -77.312,163.323 -79.558,161.078C-80.359,152.666 -76.883,144.516 -74.159,136.734C-72.684,132.511 -71.402,128.256 -70.183,123.953C-68.195,117.007 -65.939,110.17 -63.62,103.328C-60.682,94.652 -58.025,85.939 -55.57,77.114C-54.096,71.85 -52.426,66.737 -50.472,61.629C-49.432,58.727 -48.619,55.802 -47.808,52.828C-45.732,45.356 -43.154,38.089 -40.562,30.783C-38.181,24.022 -36.029,17.235 -34.193,10.305C-33.18,6.621 -32.18,3.88 -29.558,1.078C-27.478,0.532 -27.478,0.532 -25.026,0.469C-23.617,0.42 -23.617,0.42 -22.179,0.37C-20.634,0.349 -20.634,0.349 -19.058,0.328C-17.449,0.288 -17.449,0.288 -15.807,0.247C-12.75,0.181 -9.693,0.137 -6.635,0.104C-4.423,0.076 -2.212,0.039 0,0Z" style="fill:rgb(126,202,174);fill-rule:nonzero;"/>
        </g>
        <g transform="matrix(1.61103,0,0,1.61103,607.652,309.931)">
            <path d="M0,0C1.203,-0.003 2.405,-0.005 3.645,-0.008C4.907,-0 6.169,0.008 7.469,0.016C8.731,0.008 9.993,0 11.293,-0.008C12.496,-0.005 13.698,-0.003 14.938,0C16.045,0.002 17.153,0.005 18.295,0.007C20.969,0.266 20.969,0.266 22.969,2.266C23.646,4.6 23.646,4.6 24.255,7.576C24.486,8.698 24.718,9.82 24.957,10.975C25.202,12.207 25.447,13.438 25.699,14.707C25.96,15.993 26.221,17.28 26.489,18.605C29.523,33.681 32.209,48.823 34.885,63.966C35.556,67.757 36.233,71.547 36.908,75.338C37.891,80.856 38.872,86.375 39.849,91.894C40.042,92.984 40.235,94.073 40.433,95.196C42.108,104.799 42.108,104.799 42.094,109.578C42.098,110.872 42.098,110.872 42.102,112.191C41.969,114.266 41.969,114.266 40.969,115.266C36.183,116.736 31.662,117.122 26.969,115.266C19.713,110.028 13.828,102.973 7.969,96.266C7,95.163 7,95.163 6.012,94.038C4.84,92.701 3.67,91.362 2.503,90.021C-0.259,86.861 -3.094,83.765 -5.918,80.66C-6.964,79.475 -6.964,79.475 -8.031,78.266C-8.727,77.602 -9.423,76.939 -10.14,76.255C-12.905,71.884 -12.538,68.102 -12.398,63.035C-12.384,62.026 -12.369,61.017 -12.354,59.978C-12.134,49.335 -11.358,38.734 -10.432,28.133C-10.15,24.883 -9.889,21.632 -9.629,18.381C-9.454,16.305 -9.279,14.228 -9.102,12.152C-9.024,11.185 -8.947,10.217 -8.868,9.221C-8.748,7.891 -8.748,7.891 -8.625,6.534C-8.559,5.755 -8.492,4.976 -8.424,4.174C-7.447,-0.574 -4.07,0.008 0,0Z" style="fill-rule:nonzero;"/>
        </g>
        <g transform="matrix(1.61103,0,0,1.61103,578.446,595.027)">
            <path d="M0,0C1.311,-0.006 1.311,-0.006 2.649,-0.013C4.497,-0.019 6.346,-0.019 8.194,-0.015C11.021,-0.012 13.847,-0.035 16.674,-0.061C18.47,-0.063 20.266,-0.064 22.063,-0.063C22.907,-0.072 23.752,-0.081 24.623,-0.09C25.414,-0.084 26.204,-0.078 27.019,-0.072C27.712,-0.072 28.405,-0.073 29.118,-0.073C31.883,0.449 33.16,1.253 35.098,3.301C35.565,6.129 35.565,6.129 35.517,9.627C35.508,10.945 35.5,12.264 35.491,13.622C35.461,15.079 35.43,16.535 35.398,17.992C35.38,19.514 35.363,21.036 35.347,22.558C35.3,26.636 35.226,30.713 35.146,34.791C35.098,37.273 35.058,39.755 35.019,42.237C34.866,52.216 34.657,62.194 34.408,72.172C34.301,76.477 34.212,80.783 34.126,85.088C34.056,88.451 33.973,91.812 33.887,95.174C33.848,96.765 33.814,98.357 33.785,99.948C33.744,102.14 33.685,104.331 33.622,106.523C33.593,107.764 33.564,109.005 33.534,110.284C33.098,113.301 33.098,113.301 31.809,115.195C28.729,117.185 25.146,116.813 21.598,116.801C20.826,116.829 20.053,116.858 19.258,116.887C17.004,116.895 17.004,116.895 13.098,116.301C10.312,112.686 9.325,108.979 8.293,104.582C8.133,103.912 7.972,103.242 7.807,102.551C7.271,100.303 6.746,98.052 6.223,95.801C5.438,92.469 4.649,89.139 3.859,85.809C3.648,84.913 3.436,84.017 3.218,83.094C1.718,76.788 0.139,70.505 -1.48,64.229C-2.689,59.542 -3.881,54.85 -5.073,50.159C-5.661,47.863 -6.256,45.569 -6.86,43.278C-10.396,29.823 -13.933,16.3 -11.902,2.301C-7.965,-0.324 -4.57,-0.005 0,0Z" style="fill-rule:nonzero;"/>
        </g>
        <g transform="matrix(1.61103,0,0,1.61103,583.392,519.208)">
            <path d="M0,0C0.879,-0 1.758,-0.001 2.663,-0.002C4.52,0.001 6.377,0.011 8.234,0.027C11.082,0.051 13.93,0.048 16.779,0.041C18.582,0.047 20.385,0.054 22.188,0.063C23.47,0.061 23.47,0.061 24.779,0.06C30.796,0.132 30.796,0.132 33.027,2.363C33.286,5.021 33.286,5.021 33.293,8.359C33.297,10.157 33.297,10.157 33.301,11.99C33.293,13.248 33.285,14.505 33.277,15.801C33.289,17.681 33.289,17.681 33.301,19.6C33.298,20.799 33.296,21.999 33.293,23.234C33.291,24.337 33.288,25.44 33.286,26.576C33.027,29.363 33.027,29.363 31.027,32.363C28.238,32.705 25.675,32.855 22.879,32.867C21.666,32.882 21.666,32.882 20.428,32.897C18.714,32.913 17.001,32.92 15.288,32.919C12.668,32.926 10.053,32.98 7.434,33.037C5.77,33.046 4.105,33.052 2.441,33.055C1.268,33.087 1.268,33.087 0.07,33.12C-2.154,33.092 -2.154,33.092 -5.973,32.363C-9.766,28.065 -10.716,24.003 -11.223,18.426C-11.3,17.748 -11.377,17.071 -11.457,16.373C-12.744,4.385 -12.744,4.385 -10.707,1.688C-7.628,-0.663 -3.723,-0.04 0,0Z" style="fill-rule:nonzero;"/>
        </g>
        <g transform="matrix(1.61103,0,0,1.61103,595.116,239.045)">
            <path d="M0,0C1.872,-0.004 1.872,-0.004 3.781,-0.008C5.746,0.004 5.746,0.004 7.75,0.016C9.06,0.008 10.369,0 11.719,-0.008C12.967,-0.005 14.214,-0.003 15.5,0C16.65,0.002 17.8,0.005 18.984,0.007C21.75,0.266 21.75,0.266 23.75,2.266C24.313,4.438 24.313,4.438 24.75,7.016C25.272,9.899 25.813,12.44 26.813,15.203C28.206,19.755 28.843,24.5 28.75,29.266C26.75,31.266 26.75,31.266 24.044,31.493C22.924,31.482 21.803,31.472 20.648,31.461C18.831,31.451 18.831,31.451 16.977,31.441C15.706,31.425 14.435,31.408 13.125,31.391C11.846,31.382 10.568,31.373 9.25,31.363C6.083,31.34 2.917,31.307 -0.25,31.266C-2.554,26.143 -4.362,21.029 -5.938,15.641C-6.275,14.535 -6.275,14.535 -6.619,13.406C-8.751,6.174 -8.751,6.174 -8.25,2.266C-5.491,-0.494 -3.858,0.008 0,0Z" style="fill-rule:nonzero;"/>
        </g>
    </g>
</svg>
